<?xml version="1.0" encoding="utf-8"?>
<!-- Generator: Adobe Illustrator 22.1.0, SVG Export Plug-In . SVG Version: 6.00 Build 0)  -->
<svg version="1.1" xmlns="http://www.w3.org/2000/svg" xmlns:xlink="http://www.w3.org/1999/xlink" x="0px" y="0px"
	 viewBox="0 0 144 144" style="enable-background:new 0 0 144 144;" xml:space="preserve">
<style type="text/css">
	.st0{fill:#4A494A;}
	.st1{fill:#00B690;}
	.st2{fill:none;stroke:#4A494A;stroke-width:5;stroke-linecap:round;stroke-linejoin:round;stroke-miterlimit:10;}
	.st3{fill:none;stroke:#4A494A;stroke-width:4.3112;stroke-miterlimit:10;}
	.st4{fill:none;stroke:#4A494A;stroke-width:5;stroke-miterlimit:10;}
</style>
<g id="CIRCLE">
	<g>
		<path class="st0" d="M72,5c36.9,0,67,30.1,67,67s-30.1,67-67,67S5,108.9,5,72S35.1,5,72,5 M72,0C32.2,0,0,32.2,0,72s32.2,72,72,72
			s72-32.2,72-72S111.8,0,72,0L72,0z"/>
	</g>
</g>
<g id="Layer_1">
	<g>
		<g>
			<line class="st4" x1="42.8" y1="102.5" x2="118" y2="27.3"/>
			<g>
				<polyline class="st4" points="101,122.6 101,44.3 22.7,44.3 				"/>
				<polyline class="st4" points="121.4,102.2 43.1,102.2 43.1,23.9 				"/>
			</g>
		</g>
		<rect x="52.2" y="53.4" class="st4" width="39.8" height="39.8"/>
	</g>
</g>
</svg>
