<?xml version="1.0" encoding="utf-8"?>
<!-- Generator: Adobe Illustrator 22.1.0, SVG Export Plug-In . SVG Version: 6.00 Build 0)  -->
<svg version="1.1" xmlns="http://www.w3.org/2000/svg" xmlns:xlink="http://www.w3.org/1999/xlink" x="0px" y="0px"
	 viewBox="0 0 144 144" style="enable-background:new 0 0 144 144;" xml:space="preserve">
<style type="text/css">
	.st0{fill:#4A494A;}
	.st1{fill:#00B690;}
	.st2{fill:none;stroke:#4A494A;stroke-width:5;stroke-linecap:round;stroke-linejoin:round;stroke-miterlimit:10;}
	.st3{fill:none;stroke:#4A494A;stroke-width:4.3112;stroke-miterlimit:10;}
	.st4{fill:none;stroke:#4A494A;stroke-width:5;stroke-miterlimit:10;}
</style>
<g id="CIRCLE">
	<g>
		<path class="st0" d="M72,5c36.9,0,67,30.1,67,67s-30.1,67-67,67S5,108.9,5,72S35.1,5,72,5 M72,0C32.2,0,0,32.2,0,72s32.2,72,72,72
			s72-32.2,72-72S111.8,0,72,0L72,0z"/>
	</g>
</g>
<g id="Layer_1">
	<g>
		<path class="st2" d="M102.8,86.9H41.2c-1.2,0-2.1-1-2.1-2.1V50.1c0-1.2,1-2.1,2.1-2.1h61.7c1.2,0,2.1,1,2.1,2.1v34.7
			C105,85.9,104,86.9,102.8,86.9z"/>
		<g>
			<path class="st2" d="M113.1,93.2V48.3c0-4-3.3-7.4-7.4-7.4H38.2c-4,0-7.4,3.3-7.4,7.4v44.9"/>
		</g>
		<path class="st2" d="M116.1,103.1H27.9c-1.2,0-2.1-1-2.1-2.1v-3.9c0-1.2,1-2.1,2.1-2.1h88.1c1.2,0,2.1,1,2.1,2.1v3.9
			C118.2,102.1,117.2,103.1,116.1,103.1z"/>
	</g>
</g>
</svg>
