<?xml version="1.0" encoding="utf-8"?>
<!-- Generator: Adobe Illustrator 22.1.0, SVG Export Plug-In . SVG Version: 6.00 Build 0)  -->
<svg version="1.1" xmlns="http://www.w3.org/2000/svg" xmlns:xlink="http://www.w3.org/1999/xlink" x="0px" y="0px"
	 viewBox="0 0 144 144" style="enable-background:new 0 0 144 144;" xml:space="preserve">
<style type="text/css">
	.st0{fill:#4A494A;}
	.st1{fill:#00B690;}
	.st2{fill:none;stroke:#4A494A;stroke-width:5;stroke-linecap:round;stroke-linejoin:round;stroke-miterlimit:10;}
	.st3{fill:none;stroke:#4A494A;stroke-width:4.3112;stroke-miterlimit:10;}
	.st4{fill:none;stroke:#4A494A;stroke-width:5;stroke-miterlimit:10;}
</style>
<g id="CIRCLE">
	<g>
		<path class="st0" d="M72,5c36.9,0,67,30.1,67,67s-30.1,67-67,67S5,108.9,5,72S35.1,5,72,5 M72,0C32.2,0,0,32.2,0,72s32.2,72,72,72
			s72-32.2,72-72S111.8,0,72,0L72,0z"/>
	</g>
</g>
<g id="Layer_1">
	<g>
		<path class="st3" d="M98.2,35.5H86v7.1l9.4,0l0,63l-46.8,0l0-49l0,0v-14l10.7,0v-7.1H45.8c-2.3,0-4.2,1.9-4.2,4.2l0,12.9l0,0V108
			c0,2.3,1.9,4.2,4.2,4.2h52.4c2.3,0,4.2-1.9,4.2-4.2V39.7C102.4,37.4,100.5,35.5,98.2,35.5z"/>
		<polygon class="st3" points="59.3,44.2 59.3,42.6 48.6,42.6 48.6,56.6 48.6,56.6 48.6,105.6 95.4,105.6 95.4,42.6 86,42.6 
			86,44.2 		"/>
		<path class="st3" d="M59.3,35.5V34h4.8v-1.5c0-0.6,0.5-1.1,1.1-1.1h14.9c0.6,0,1.1,0.5,1.1,1.1V34H86v1.4"/>
	</g>
</g>
</svg>
