<?xml version="1.0" encoding="utf-8"?>
<!-- Generator: Adobe Illustrator 22.1.0, SVG Export Plug-In . SVG Version: 6.00 Build 0)  -->
<svg version="1.1" xmlns="http://www.w3.org/2000/svg" xmlns:xlink="http://www.w3.org/1999/xlink" x="0px" y="0px"
	 viewBox="0 0 144 144" style="enable-background:new 0 0 144 144;" xml:space="preserve">
<style type="text/css">
	.st0{fill:#4A494A;}
	.st1{fill:#00B690;}
	.st2{fill:none;stroke:#4A494A;stroke-width:5;stroke-linecap:round;stroke-linejoin:round;stroke-miterlimit:10;}
	.st3{fill:none;stroke:#4A494A;stroke-width:4.3112;stroke-miterlimit:10;}
	.st4{fill:none;stroke:#4A494A;stroke-width:5;stroke-miterlimit:10;}
</style>
<g id="CIRCLE">
	<g>
		<path class="st0" d="M72,5c36.9,0,67,30.1,67,67s-30.1,67-67,67S5,108.9,5,72S35.1,5,72,5 M72,0C32.2,0,0,32.2,0,72s32.2,72,72,72
			s72-32.2,72-72S111.8,0,72,0L72,0z"/>
	</g>
</g>
<g id="Layer_1">
	<g>
		<polygon class="st2" points="58.3,50 58.3,32.5 39.1,50 		"/>
		<path class="st2" d="M66.2,77.3l-2.1,6.8l-1.4,4.6c-0.2,0.5,0.3,1,0.8,0.8L68,88l6.8-2.1v0L66.2,77.3z"/>
		<g>
			<polygon class="st2" points="74.8,85.9 66.2,77.3 66.2,77.3 97.6,45.9 97.6,45.9 101.1,42.4 101.3,42.2 101.3,32.5 58.3,32.5 
				39.1,50 39.1,111.1 101.3,111.1 101.3,59.4 74.8,85.9 			"/>
			<path class="st2" d="M113.9,41.9l-3.7-3.7c-1.4-1.4-3.6-1.4-4.9,0l-3.9,3.9v0l0.5-0.5l8.6,8.6l3.4-3.4
				C115.2,45.5,115.2,43.3,113.9,41.9z"/>
			<polygon class="st2" points="101.3,42.2 101.3,42.2 101.1,42.4 			"/>
			<polygon class="st2" points="106.2,54.5 109.6,51.1 110.4,50.3 110.4,50.3 101.8,41.7 101.3,42.2 101.1,42.4 97.6,45.9 
				97.6,45.9 66.2,77.3 66.2,77.3 74.8,85.9 74.8,85.9 101.3,59.4 109.6,51.1 106.2,54.5 97.6,45.9 			"/>
		</g>
	</g>
</g>
</svg>
