<?xml version="1.0" encoding="utf-8"?>
<!-- Generator: Adobe Illustrator 22.1.0, SVG Export Plug-In . SVG Version: 6.00 Build 0)  -->
<svg version="1.1" xmlns="http://www.w3.org/2000/svg" xmlns:xlink="http://www.w3.org/1999/xlink" x="0px" y="0px"
	 viewBox="0 0 362 251" style="enable-background:new 0 0 362 251;" xml:space="preserve">
<style type="text/css">
	.st0{display:none;}
	.st1{display:inline;stroke:#FFFFFF;stroke-width:1.4936;stroke-miterlimit:10;}
	.st2{fill:#FFFFFF;}
	.st3{fill:none;stroke:#FFFFFF;stroke-width:10;stroke-linecap:round;stroke-linejoin:bevel;stroke-miterlimit:10;}
</style>
<g id="Layer_2" class="st0">
	<rect x="-13.4" y="-11.5" class="st1" width="896.8" height="274"/>
</g>
<g id="Layer_1">
	<g>
		<path class="st2" d="M111.3,21.7L59.3,229.3H23L75,21.7H111.3 M124.1,11.7H67.2L10.2,239.3h56.9L124.1,11.7L124.1,11.7z"/>
	</g>
	<g>
		<path class="st2" d="M116.3,21.7l51.9,207.7h-36.3L80,21.7H116.3 M124.1,11.7H67.2l56.9,227.7H181L124.1,11.7L124.1,11.7z"/>
	</g>
	<g>
		<path class="st2" d="M225.1,21.7l-51.9,207.7h-36.3l51.9-207.7H225.1 M237.9,11.7H181l-56.9,227.7H181L237.9,11.7L237.9,11.7z"/>
	</g>
	<g>
		<path class="st2" d="M230.1,21.7L282,229.3h-36.3L193.8,21.7H230.1 M237.9,11.7H181l56.9,227.7h56.9L237.9,11.7L237.9,11.7z"/>
	</g>
	<g>
		<path class="st2" d="M339,21.7L287,229.3h-36.3l51.9-207.7H339 M351.8,11.7h-56.9l-56.9,227.7h56.9L351.8,11.7L351.8,11.7z"/>
	</g>
	<polyline class="st3" points="20.7,231.3 76.7,19.3 30,231.3 87.3,14.7 38,235.3 98,14.7 48,230.7 106.7,14.7 55.3,235.3 
		113.3,18.7 168,235.3 115.6,45.6 158,230.7 110,53.3 149.3,232.7 107.3,64.7 141.3,235.3 102.7,81.3 132,228 98.7,97.3 	"/>
</g>
</svg>
