<?xml version="1.0" encoding="utf-8"?>
<!-- Generator: Adobe Illustrator 22.1.0, SVG Export Plug-In . SVG Version: 6.00 Build 0)  -->
<svg version="1.1" id="Layer_1" xmlns="http://www.w3.org/2000/svg" xmlns:xlink="http://www.w3.org/1999/xlink" x="0px" y="0px"
	 viewBox="0 0 375.4 144" style="enable-background:new 0 0 375.4 144;" xml:space="preserve">
<style type="text/css">
	.st0{fill:#FFFFFF;}
	.st1{fill:none;}
	.st2{fill:#BE1E2D;}
</style>
<circle class="st0" cx="188.2" cy="51.2" r="20.3"/>
<rect x="112.5" y="91.5" class="st0" width="157" height="23.5"/>
<g id="Layer_1_1_">
</g>
<g id="Layer_2_1_">
</g>
<g id="Layer_3">
	<g>
		<polygon class="st1" points="71,39.4 65.6,58.9 76.6,58.9 		"/>
		<polygon class="st1" points="280.7,39.4 275.2,58.9 286.2,58.9 		"/>
		<path d="M229.1,74.7c0.8,0.5,1.8,0.7,2.9,0.7c1.1,0,2.1-0.2,2.9-0.7c0.8-0.5,1.2-1.1,1.2-1.9V54.6h14.3v18.2
			c0,0.8,0.4,1.4,1.2,1.9s1.8,0.7,2.9,0.7c1.1,0,2.1-0.2,2.9-0.7c0.8-0.5,1.2-1.1,1.2-1.9V31.6c0-0.8-0.4-1.5-1.2-1.9
			c-0.8-0.4-1.8-0.6-2.9-0.6c-1.1,0-2.1,0.2-2.9,0.6c-0.8,0.4-1.2,1.1-1.2,1.9v16.6h-14.3V31.6c0-0.8-0.4-1.5-1.2-1.9
			s-1.8-0.6-2.9-0.6s-2.1,0.2-2.9,0.6c-0.8,0.4-1.2,1.1-1.2,1.9v41.3C227.8,73.6,228.3,74.3,229.1,74.7z"/>
		<path d="M263.9,74.4c1.3,0.7,2.6,1.1,4,1.1c1.8,0,2.8-0.5,3.1-1.6l2.4-8.5H287l2.4,8.4c0.3,1.1,1.2,1.7,2.8,1.7
			c1.2,0,2.3-0.3,3.5-1c1.1-0.7,1.7-1.5,1.7-2.4c0-0.1,0-0.3-0.1-0.6L285,31.6c-0.3-0.9-0.9-1.6-1.9-2.1s-2.2-0.7-3.4-0.7
			c-1.3,0-2.4,0.2-3.4,0.7c-1,0.4-1.6,1.1-1.9,1.9l-12.3,39.9c-0.1,0.4-0.1,0.6-0.1,0.7C262.1,72.8,262.7,73.7,263.9,74.4z
			 M280.7,39.4l5.5,19.5h-11L280.7,39.4z"/>
		<path d="M303.9,74.7c0.7,0.5,1.6,0.7,2.5,0.7h20.1c0.8,0,1.4-0.4,1.8-1.1s0.7-1.6,0.7-2.5c0-1-0.2-1.8-0.7-2.5
			c-0.4-0.7-1-1.1-1.8-1.1H311V31.6c0-0.8-0.4-1.5-1.2-1.9c-0.8-0.4-1.8-0.6-2.9-0.6s-2.1,0.2-2.9,0.6s-1.2,1.1-1.2,1.9v41.3
			C302.8,73.6,303.1,74.3,303.9,74.7z"/>
		<path d="M334.7,74.7c0.8,0.5,1.8,0.7,2.9,0.7s2.1-0.2,2.9-0.7s1.2-1.1,1.2-1.9V55.4h9.7c0.8,0,1.4-0.3,1.9-1
			c0.4-0.6,0.7-1.4,0.7-2.2c0-0.9-0.2-1.7-0.7-2.3c-0.4-0.6-1.1-1-1.9-1h-9.7V36.3h17.5c0.8,0,1.4-0.4,1.9-1.1
			c0.4-0.7,0.7-1.6,0.7-2.6s-0.2-1.8-0.6-2.5s-1.1-1-1.9-1h-22.2c-1,0-1.8,0.2-2.5,0.7s-1.1,1.1-1.1,1.9v41.2
			C333.5,73.6,333.9,74.3,334.7,74.7z"/>
		<path d="M19.4,74.7c0.8,0.5,1.8,0.7,2.9,0.7s2.1-0.2,2.9-0.7s1.2-1.1,1.2-1.9V54.6h14.3v18.2c0,0.8,0.4,1.4,1.2,1.9
			s1.8,0.7,2.9,0.7c1.1,0,2.1-0.2,2.9-0.7c0.8-0.5,1.2-1.1,1.2-1.9V31.6c0-0.8-0.4-1.5-1.2-1.9C47,29.2,46,29,44.9,29
			s-2.1,0.2-2.9,0.6c-0.8,0.4-1.2,1.1-1.2,1.9v16.6H26.4V31.6c0-0.8-0.4-1.5-1.2-1.9c-0.8-0.4-1.8-0.6-2.9-0.6s-2.1,0.2-2.9,0.6
			s-1.2,1.1-1.2,1.9v41.3C18.2,73.6,18.6,74.3,19.4,74.7z"/>
		<path d="M54.3,74.4c1.3,0.7,2.6,1.1,4,1.1c1.8,0,2.8-0.5,3.1-1.6l2.4-8.5h13.6l2.4,8.4c0.3,1.1,1.2,1.7,2.8,1.7
			c1.2,0,2.3-0.3,3.5-1c1.1-0.7,1.7-1.5,1.7-2.4c0-0.1,0-0.3-0.1-0.6L75.4,31.4c-0.3-0.9-0.9-1.6-1.9-2.1s-2.2-0.7-3.4-0.7
			c-1.3,0-2.4,0.2-3.4,0.7c-1,0.4-1.6,1.1-1.9,1.9L52.5,71.1c-0.1,0.4-0.1,0.6-0.1,0.7C52.4,72.8,53,73.7,54.3,74.4z M71,39.4
			l5.5,19.5h-11L71,39.4z"/>
		<path d="M94.2,74.7c0.7,0.5,1.6,0.7,2.5,0.7h20.1c0.8,0,1.4-0.4,1.8-1.1s0.7-1.6,0.7-2.5c0-1-0.2-1.8-0.7-2.5
			c-0.4-0.7-1-1.1-1.8-1.1h-15.5V31.6c0-0.8-0.4-1.5-1.2-1.9c-0.8-0.4-1.8-0.6-2.9-0.6s-2.1,0.2-2.9,0.6s-1.2,1.1-1.2,1.9v41.3
			C93.1,73.6,93.5,74.3,94.2,74.7z"/>
		<path d="M125.1,74.7c0.8,0.5,1.8,0.7,2.9,0.7c1.1,0,2.1-0.2,2.9-0.7c0.8-0.5,1.2-1.1,1.2-1.9V55.4h9.7c0.8,0,1.4-0.3,1.9-1
			c0.4-0.6,0.7-1.4,0.7-2.2c0-0.9-0.2-1.7-0.7-2.3c-0.4-0.6-1.1-1-1.9-1h-9.7V36.3h17.5c0.8,0,1.4-0.4,1.9-1.1
			c0.4-0.7,0.7-1.6,0.7-2.6s-0.2-1.8-0.6-2.5c-0.4-0.7-1.1-1-1.9-1h-22.2c-1,0-1.8,0.2-2.5,0.7s-1.1,1.1-1.1,1.9v41.2
			C123.9,73.6,124.3,74.3,125.1,74.7z"/>
		<path d="M187.3,58.8c1.1,0,2-0.3,2.7-0.9l-4.7-4.8c-0.9,0.8-1.4,1.8-1.4,2.9c0,0.8,0.3,1.5,0.9,2
			C185.4,58.6,186.3,58.8,187.3,58.8z"/>
		<path d="M187.9,76.1c13.6,0,24.6-11,24.6-24.6s-11-24.6-24.6-24.6s-24.6,11-24.6,24.6S174.3,76.1,187.9,76.1z M191.5,42.6
			c1.1,0.8,1.7,1.6,1.7,2.4c0,0.5-0.2,1-0.7,1.4c-0.4,0.4-0.9,0.6-1.4,0.6c-0.3,0-0.6-0.1-0.9-0.3c-0.3-0.2-0.5-0.5-0.7-0.7
			s-0.5-0.5-0.9-0.7s-0.8-0.3-1.3-0.3c-0.6,0-1.2,0.2-1.6,0.5c-0.4,0.3-0.6,0.8-0.6,1.4c0,0.3,0.1,0.6,0.2,0.9
			c0.1,0.3,0.3,0.6,0.6,1l0.7,0.8c0.1,0.2,0.4,0.5,0.9,0.9l0.7,0.7l4.1,4.2c0.3-0.6,0.4-1.3,0.4-2.2s0.1-1.4,0.3-1.8
			s0.8-0.5,1.7-0.5c0.7,0,1.2,0.2,1.4,0.5s0.4,0.8,0.4,1.5c0,1.7-0.5,3.4-1.6,5.2l2.2,2.2c0.2,0.2,0.3,0.4,0.3,0.7
			c0,0.4-0.2,0.8-0.7,1.2c-0.4,0.4-0.9,0.6-1.4,0.6c-0.4,0-0.7-0.2-1-0.5l-1.5-1.6c-1.7,1.4-3.6,2.1-5.8,2.1c-2.1,0-3.9-0.6-5.3-1.8
			c-1.4-1.2-2-2.7-2-4.4c0-1.2,0.3-2.3,1-3.3c0.6-1,1.4-1.8,2.4-2.4c-1.2-1.3-1.8-2.7-1.8-4.1c0-1.6,0.6-2.8,1.8-3.7
			s2.7-1.4,4.4-1.4C189,41.5,190.4,41.8,191.5,42.6z M172.9,41.8L172.9,41.8c1.2-2.3,2.8-4.3,5-5.8c2.1-1.5,4.7-2.3,7.2-2.6
			c0.8-0.1,1.5,0.5,1.6,1.3s-0.5,1.5-1.3,1.6c-2.1,0.2-4.2,0.9-5.9,2.1c-1.7,1.2-3.1,2.8-4.1,4.7c-0.4,0.7-1.2,1-2,0.6
			C172.8,43.4,172.5,42.5,172.9,41.8z M171.7,45.9c2,0,2,3.1,0,3.1S169.7,45.9,171.7,45.9z"/>
		<path class="st2" d="M349.4,89.8H30.3c-7.5,0-13.7,6.1-13.7,13.7l0,0c0,7.5,6.1,13.7,13.7,13.7h319.1c7.5,0,13.7-6.1,13.7-13.7
			l0,0C363.1,95.9,357,89.8,349.4,89.8z M130.5,97.2c-0.2,0.3-0.4,0.4-0.7,0.4h-3.4v13.2c0,0.3-0.1,0.5-0.4,0.7s-0.6,0.3-1,0.3
			s-0.8-0.1-1.1-0.3c-0.3-0.2-0.4-0.4-0.4-0.7V97.6h-3.4c-0.3,0-0.5-0.1-0.7-0.4s-0.3-0.6-0.3-0.9s0.1-0.6,0.2-0.9s0.4-0.4,0.7-0.4
			h9.7c0.3,0,0.5,0.1,0.7,0.4s0.2,0.6,0.2,0.9C130.8,96.6,130.7,96.9,130.5,97.2z M140,102.2c0.3,0,0.5,0.1,0.7,0.4
			c0.2,0.2,0.3,0.5,0.3,0.8s-0.1,0.6-0.2,0.8c-0.2,0.2-0.4,0.4-0.7,0.4h-3.5v4.6h6.5c0.3,0,0.5,0.1,0.7,0.4s0.3,0.6,0.3,0.9
			s-0.1,0.6-0.2,0.9c-0.2,0.3-0.4,0.4-0.7,0.4H135c-0.4,0-0.7-0.1-0.9-0.3c-0.3-0.2-0.4-0.4-0.4-0.7V95.9c0-0.3,0.1-0.5,0.4-0.7
			c0.3-0.2,0.6-0.3,0.9-0.3h8.2c0.3,0,0.5,0.1,0.7,0.4s0.2,0.6,0.2,0.9c0,0.4-0.1,0.7-0.3,0.9c-0.2,0.3-0.4,0.4-0.7,0.4h-6.5v4.6
			L140,102.2L140,102.2z M157.5,111.4c-0.4,0.2-0.8,0.4-1.3,0.4c-0.6,0-0.9-0.2-1-0.6l-0.9-3.1h-4.9l-0.9,3.1
			c-0.1,0.4-0.5,0.6-1.1,0.6c-0.5,0-1-0.1-1.4-0.4c-0.5-0.3-0.7-0.6-0.7-0.9c0,0,0-0.1,0-0.2l4.4-14.5c0.1-0.3,0.3-0.5,0.7-0.7
			s0.8-0.2,1.2-0.2s0.9,0.1,1.2,0.3c0.4,0.2,0.6,0.4,0.7,0.7l4.4,14.5c0,0.1,0,0.2,0,0.2C158.2,110.9,158,111.2,157.5,111.4z
			 M173.5,102.2c0.3,0,0.5,0.1,0.7,0.4c0.2,0.2,0.3,0.5,0.3,0.8s-0.1,0.6-0.2,0.8c-0.2,0.2-0.4,0.4-0.7,0.4H170v4.6h6.5
			c0.3,0,0.5,0.1,0.7,0.4s0.3,0.6,0.3,0.9s-0.1,0.6-0.2,0.9c-0.2,0.3-0.4,0.4-0.7,0.4h-8.2c-0.4,0-0.7-0.1-0.9-0.3
			c-0.3-0.2-0.4-0.4-0.4-0.7V95.9c0-0.3,0.1-0.5,0.4-0.7c0.3-0.2,0.6-0.3,0.9-0.3h8.2c0.3,0,0.5,0.1,0.7,0.4s0.2,0.6,0.2,0.9
			c0,0.4-0.1,0.7-0.3,0.9c-0.2,0.3-0.4,0.4-0.7,0.4H170v4.6L173.5,102.2L173.5,102.2z M190.9,111.4c-0.4,0.3-0.9,0.4-1.3,0.4
			c-0.4,0-0.6-0.2-0.8-0.5l-3.4-5.9l-3.4,5.9c-0.2,0.3-0.5,0.5-0.8,0.5c-0.4,0-0.9-0.1-1.3-0.4c-0.4-0.3-0.7-0.6-0.7-1
			c0-0.2,0.1-0.3,0.2-0.6l4-6.5l-3.8-6.5c-0.1-0.2-0.2-0.4-0.2-0.6c0-0.4,0.2-0.7,0.6-1c0.4-0.3,0.8-0.4,1.3-0.4
			c0.4,0,0.8,0.2,1,0.6l3.1,5.6l3.1-5.6c0.2-0.4,0.6-0.6,1-0.6c0.5,0,0.9,0.1,1.3,0.4c0.4,0.3,0.6,0.6,0.6,1c0,0.2-0.1,0.4-0.2,0.6
			l-3.8,6.5l4,6.5c0.1,0.2,0.2,0.4,0.2,0.6C191.5,110.8,191.3,111.1,190.9,111.4z M205.4,100.3c0,1.8-0.5,3.1-1.5,4
			c-1,0.8-2.3,1.3-3.9,1.3h-2.6v5.3c0,0.3-0.1,0.5-0.4,0.7c-0.3,0.2-0.6,0.3-1,0.3s-0.8-0.1-1.1-0.3c-0.3-0.2-0.4-0.4-0.4-0.7v-15
			c0-0.2,0.1-0.5,0.3-0.6c0.2-0.2,0.5-0.3,0.8-0.3h4.6c1.6,0,2.8,0.4,3.8,1.3S205.4,98.4,205.4,100.3L205.4,100.3L205.4,100.3z
			 M218.8,111.4c-0.4,0.3-0.8,0.5-1.3,0.5c-0.4,0-0.8-0.2-1-0.7l-3.3-6.3h-1.9v6c0,0.3-0.1,0.5-0.4,0.7c-0.3,0.2-0.6,0.3-1.1,0.3
			c-0.4,0-0.7-0.1-1-0.3c-0.3-0.2-0.4-0.4-0.4-0.7v-15c0-0.2,0.1-0.5,0.3-0.6c0.2-0.2,0.4-0.3,0.7-0.3h4.6c3.6,0,5.5,1.6,5.5,4.8
			c0,1.3-0.3,2.3-0.8,3s-1.3,1.3-2.2,1.6l3,5.6c0.1,0.1,0.1,0.2,0.1,0.4C219.4,110.7,219.2,111.1,218.8,111.4z M229.1,102.2
			c0.3,0,0.5,0.1,0.7,0.4c0.2,0.2,0.3,0.5,0.3,0.8s-0.1,0.6-0.2,0.8c-0.2,0.2-0.4,0.4-0.7,0.4h-3.5v4.6h6.5c0.3,0,0.5,0.1,0.7,0.4
			s0.3,0.6,0.3,0.9s-0.1,0.6-0.2,0.9c-0.2,0.3-0.4,0.4-0.7,0.4h-8.2c-0.4,0-0.7-0.1-0.9-0.3c-0.3-0.2-0.4-0.4-0.4-0.7V95.9
			c0-0.3,0.1-0.5,0.4-0.7c0.3-0.2,0.6-0.3,0.9-0.3h8.2c0.3,0,0.5,0.1,0.7,0.4s0.2,0.6,0.2,0.9c0,0.4-0.1,0.7-0.3,0.9
			c-0.2,0.3-0.4,0.4-0.7,0.4h-6.5v4.6L229.1,102.2L229.1,102.2z M244.4,110.7c-1,0.9-2.3,1.3-4,1.3c-1.5,0-2.7-0.3-3.7-0.9
			s-1.6-1.2-1.6-2c0-0.4,0.1-0.7,0.4-1.1c0.3-0.4,0.6-0.5,0.9-0.5c0.2,0,0.4,0.1,0.7,0.3c0.3,0.2,0.5,0.4,0.7,0.6s0.6,0.4,1,0.6
			s0.9,0.3,1.5,0.3c0.7,0,1.3-0.2,1.8-0.5s0.7-0.8,0.7-1.5c0-0.5-0.1-0.9-0.4-1.2c-0.3-0.4-0.6-0.7-1.1-0.9
			c-0.4-0.2-0.9-0.5-1.4-0.7s-1-0.5-1.6-0.7c-0.5-0.3-1-0.6-1.4-0.9s-0.8-0.8-1.1-1.4s-0.4-1.2-0.4-2s0.2-1.6,0.5-2.2
			s0.8-1.1,1.3-1.5s1.1-0.6,1.8-0.8s1.3-0.2,2-0.2c0.4,0,0.8,0,1.3,0.1c0.4,0.1,0.9,0.1,1.4,0.3s0.9,0.3,1.2,0.6s0.5,0.6,0.5,0.9
			s-0.1,0.7-0.3,1.1s-0.5,0.5-0.9,0.5c-0.1,0-0.5-0.1-1.1-0.4s-1.3-0.4-2-0.4c-0.8,0-1.5,0.2-1.9,0.5c-0.5,0.3-0.7,0.7-0.7,1.3
			c0,0.4,0.2,0.8,0.6,1.2s0.8,0.6,1.4,0.8c0.5,0.2,1.1,0.5,1.8,0.8c0.6,0.3,1.2,0.7,1.8,1c0.5,0.4,1,0.9,1.4,1.6s0.6,1.5,0.6,2.4
			C245.9,108.6,245.4,109.8,244.4,110.7z M257.6,110.7c-1,0.9-2.3,1.3-4,1.3c-1.5,0-2.7-0.3-3.7-0.9s-1.6-1.2-1.6-2
			c0-0.4,0.1-0.7,0.4-1.1c0.3-0.4,0.6-0.5,0.9-0.5c0.2,0,0.4,0.1,0.7,0.3c0.3,0.2,0.5,0.4,0.7,0.6s0.6,0.4,1,0.6s0.9,0.3,1.5,0.3
			c0.7,0,1.3-0.2,1.8-0.5s0.7-0.8,0.7-1.5c0-0.5-0.1-0.9-0.4-1.2c-0.3-0.4-0.6-0.7-1.1-0.9c-0.4-0.2-0.9-0.5-1.4-0.7s-1-0.5-1.6-0.7
			c-0.5-0.3-1-0.6-1.4-0.9s-0.8-0.8-1.1-1.4s-0.4-1.2-0.4-2s0.2-1.6,0.5-2.2s0.8-1.1,1.3-1.5s1.1-0.6,1.8-0.8s1.3-0.2,2-0.2
			c0.4,0,0.8,0,1.3,0.1c0.4,0.1,0.9,0.1,1.4,0.3s0.9,0.3,1.2,0.6s0.5,0.6,0.5,0.9s-0.1,0.7-0.3,1.1s-0.5,0.5-0.9,0.5
			c-0.1,0-0.5-0.1-1.1-0.4s-1.3-0.4-2-0.4c-0.8,0-1.5,0.2-1.9,0.5c-0.5,0.3-0.7,0.7-0.7,1.3c0,0.4,0.2,0.8,0.6,1.2s0.8,0.6,1.4,0.8
			c0.5,0.2,1.1,0.5,1.8,0.8c0.6,0.3,1.2,0.7,1.8,1c0.5,0.4,1,0.9,1.4,1.6s0.6,1.5,0.6,2.4C259.1,108.6,258.6,109.8,257.6,110.7z"/>
		<path class="st2" d="M200,97.6h-2.6v5.6h2.6c0.8,0,1.4-0.2,1.8-0.7c0.4-0.4,0.6-1.1,0.6-2v-0.3c0-0.9-0.2-1.5-0.6-2
			S200.7,97.6,200,97.6z"/>
		<polygon class="st2" points="150.1,105.8 154.1,105.8 152.1,98.7 		"/>
		<path class="st2" d="M213.9,97.6h-2.5v4.9h2.5c1.6,0,2.5-0.8,2.5-2.4C216.3,98.4,215.5,97.6,213.9,97.6z"/>
	</g>
</g>
</svg>
