<?xml version="1.0" encoding="utf-8"?>
<!-- Generator: Adobe Illustrator 22.1.0, SVG Export Plug-In . SVG Version: 6.00 Build 0)  -->
<svg version="1.1" id="Layer_1" xmlns="http://www.w3.org/2000/svg" xmlns:xlink="http://www.w3.org/1999/xlink" x="0px" y="0px"
	 viewBox="0 0 483.8 320" style="enable-background:new 0 0 483.8 320;" xml:space="preserve">
<style type="text/css">
	.st0{display:none;}
	.st1{display:inline;opacity:0.35;}
	.st2{fill:none;}
	.st3{fill:#014650;}
	.st4{fill:#36B371;}
	.st5{fill:none;stroke:#014650;stroke-width:5;stroke-linecap:round;stroke-linejoin:round;}
	.st6{fill:none;stroke:#014650;stroke-width:5;stroke-linecap:round;stroke-linejoin:round;stroke-dasharray:13.1397,13.1397;}
	.st7{fill:none;stroke:#014650;stroke-width:5;stroke-linecap:round;stroke-linejoin:round;stroke-dasharray:12.3912,12.3912;}
	.st8{fill:none;stroke:#014650;stroke-width:5;stroke-linecap:round;stroke-linejoin:round;stroke-dasharray:12.3291,12.3291;}
</style>
<g id="Layer_1_1_" class="st0">
	<g id="FIIf1f.tif" class="st1">
		
			<image style="overflow:visible;enable-background:new    ;" width="379" height="541" id="Layer_1_2_" xlink:href="F84582A80EBD8845.png"  transform="matrix(1.2187 0 0 1.2187 2.3484 0.6918)">
		</image>
	</g>
</g>
<g id="Layer_2_1_">
	<path class="st2" d="M205.7,207.3c-27.5,6.1-35.1,19.9-35.1,19.9c-4.6,13.8-3.1,16.8,6.1,47.4s62.7,24.5,84.1,13.8
		s15.3-53.5,12.2-67.2C269.8,207.3,233.2,201.1,205.7,207.3z"/>
	<path class="st3" d="M73.3,183.2c3.1-19.9,30.6-50.4,77.9-74.9s96.5-4.2,125.5,17.6c-18-19.8-62.1-71.8-114.1-102.4
		C109.1-8,52.2,34.7,35.1,51.8S5,89.2,7.6,117.5C10.4,148,73.3,183.2,73.3,183.2z"/>
	<path class="st4" d="M321,154.5l21.4,15.3c0,0,64.9-81.3,35.1-123.8c-35.3-50.5-125.3-55-188-18.3c0,0,31.4,24.8,52.8,46.2
		C265.4,96.8,302.1,138.9,321,154.5z"/>
	<g>
		<g>
			<path class="st5" d="M397.7,63c-3.2-2.3-5-3.3-5-3.3s1,2,1.9,5.7"/>
			<path class="st6" d="M396.5,78.3c0.4,10.2-1.2,24.1-8.7,40.8c-10.9,24.4-20.7,40.3-27.1,49.5"/>
			<path class="st5" d="M356.9,173.9c-2.4,3.2-3.8,4.6-3.8,4.6s1.8,1.1,5,3.4"/>
			<path class="st7" d="M368.1,189.2c23.1,17.4,67.5,55.3,94.1,105.6"/>
			<path class="st5" d="M465,300.3c0.9,1.8,1.7,3.6,2.6,5.4c0,0,0.5-2.1,1.3-5.9"/>
			<path class="st8" d="M471,287.7c4.1-27.6,8.1-82.8-12.5-134.8c-19.8-49.9-43-75.1-55.9-86"/>
		</g>
	</g>
	<path class="st4" d="M402.4,231.1L288.9,205c0,0-12.2-6.1-50.4-7.6c-38.2-1.5-58.1,7.6-74.9,15.3s-35.1,6.1-35.1,6.1
		c-30.6-12.2-45.8-9.2-73.4-4.6s-41.2,13.7-41.2,13.7c-2.3,8.4,0.8,14.5,0.8,14.5c7.6,0,12.2,39.7,19.9,56.5s47.4,18.3,73.4,7.6
		s19.9-64.2,33.6-67.2c13.8-3.1,9.2,3.1,24.5,36.7s48.9,29,88.6,21.4s33.6-76.4,33.6-76.4L414,244.1
		C409,238.8,402.4,231.1,402.4,231.1z M101.7,302c0,0-48.9,18.3-64.2-13.8s-6.1-47.4-6.1-47.4s3.1-13.8,16.8-18.3
		c13.8-4.6,59.6-10.7,76.4,9.2C130.8,243.9,126.2,292.8,101.7,302z M260.7,288.3c-21.4,10.7-74.9,16.8-84.1-13.8
		c-9.2-30.6-10.7-33.6-6.1-47.4c0,0,7.6-13.8,35.1-19.9s64.2,0,67.2,13.8C276,234.8,282.1,277.6,260.7,288.3z"/>
</g>
</svg>
